<?xml version="1.0" encoding="UTF-8" standalone="no"?>
<svg
   height="127.96"
   width="128"
   version="1.1"
   id="svg26"
   sodipodi:docname="DefaultProjectIcon.svg"
   inkscape:export-filename="DefaultProjectIcon.png"
   inkscape:export-xdpi="96"
   inkscape:export-ydpi="96"
   xmlns:inkscape="http://www.inkscape.org/namespaces/inkscape"
   xmlns:sodipodi="http://sodipodi.sourceforge.net/DTD/sodipodi-0.dtd"
   xmlns="http://www.w3.org/2000/svg"
   xmlns:svg="http://www.w3.org/2000/svg">
  <defs
     id="defs30">
    <rect
       x="18.072056"
       y="42.251217"
       width="94.348587"
       height="38.512173"
       id="rect5394" />
  </defs>
  <sodipodi:namedview
     id="namedview28"
     pagecolor="#ffffff"
     bordercolor="#000000"
     borderopacity="0.25"
     inkscape:showpageshadow="2"
     inkscape:pageopacity="0.0"
     inkscape:pagecheckerboard="0"
     inkscape:deskcolor="#d1d1d1"
     showgrid="false" />
  <g
     transform="translate(32,32)"
     id="g6">
    <path
       d="m -16,-32 c -8.86,0 -16,7.13 -16,15.99 v 95.98 c 0,8.86 7.13,15.99 16,15.99 h 96 c 8.86,0 16,-7.13 16,-15.99 V -16.01 C 96,-24.86 88.86,-32 80,-32 Z"
       fill="#363d52"
       id="path2" />
    <path
       d="m -16,-32 c -8.86,0 -16,7.13 -16,15.99 v 95.98 c 0,8.86 7.13,15.99 16,15.99 h 96 c 8.86,0 16,-7.13 16,-15.99 V -16.01 C 96,-24.86 88.86,-32 80,-32 Z m 0,4 h 96 c 6.64,0 12,5.35 12,11.99 v 95.98 c 0,6.64 -5.35,11.99 -12,11.99 h -96 c -6.64,0 -12,-5.35 -12,-11.99 v -95.98 c 0,-6.64 5.36,-11.99 12,-11.99 z"
       fill-opacity="0.4"
       id="path4" />
  </g>
  <text
     xml:space="preserve"
     id="text5392"
     style="white-space:pre;shape-inside:url(#rect5394);fill:#0f72ca;fill-opacity:1"
     transform="matrix(3.3656078,0,0,4.8763628,-54.871703,-179.38197)"><tspan
       x="18.072266"
       y="53.199917"
       id="tspan6248">BUAA</tspan></text>
</svg>
